<svg width="20" height="20" viewBox="0 0 20 20" fill="none" xmlns="http://www.w3.org/2000/svg"><path d="M10.8834 10L17.0001 3.88334C17.2418 3.64167 17.2418 3.24167 17.0001 3.00001C16.7584 2.75834 16.3584 2.75834 16.1168 3.00001L10.0001 9.11667L3.88343 2.99167C3.64176 2.75001 3.24176 2.75001 3.0001 2.99167C2.75843 3.23334 2.75843 3.63334 3.0001 3.87501L9.11676 10L3.0001 16.1167C2.75843 16.3583 2.75843 16.7583 3.0001 17C3.1251 17.125 3.28343 17.1833 3.44176 17.1833C3.6001 17.1833 3.75843 17.125 3.88343 17L10.0001 10.8833L16.1168 17C16.2418 17.125 16.4001 17.1833 16.5584 17.1833C16.7168 17.1833 16.8751 17.125 17.0001 17C17.2418 16.7583 17.2418 16.3583 17.0001 16.1167L10.8834 10Z" fill="#8D9399"/></svg>