<svg width="62" height="14" viewBox="0 0 62 14" fill="none" xmlns="http://www.w3.org/2000/svg"><path d="M0 0H3.96V10.86H10.64V14H0V0Z" fill="#409EFF"/><path d="M12.207 0H16.167V14H12.207V0Z" fill="#409EFF"/><path d="M32.3044 0V14H29.0444L22.8644 6.54V14H18.9844V0H22.2444L28.4244 7.46V0H32.3044Z" fill="#409EFF"/><path d="M46.3377 10.94V14H35.0977V0H46.0777V3.06H39.0177V5.42H45.2377V8.38H39.0177V10.94H46.3377Z" fill="#409EFF"/><path d="M54.6552 10.28H52.4952V14H48.5352V0H54.9352C56.2018 0 57.3018 0.213334 58.2352 0.64C59.1685 1.05333 59.8885 1.65333 60.3952 2.44C60.9018 3.21333 61.1552 4.12667 61.1552 5.18C61.1552 6.19333 60.9152 7.08 60.4352 7.84C59.9685 8.58667 59.2952 9.17333 58.4152 9.6L61.4352 14H57.1952L54.6552 10.28ZM57.1552 5.18C57.1552 4.52667 56.9485 4.02 56.5352 3.66C56.1218 3.3 55.5085 3.12 54.6952 3.12H52.4952V7.22H54.6952C55.5085 7.22 56.1218 7.04667 56.5352 6.7C56.9485 6.34 57.1552 5.83333 57.1552 5.18Z" fill="#409EFF"/></svg>