<svg width="22" height="22" viewBox="0 0 20 20" fill="none" xmlns="http://www.w3.org/2000/svg"><g clip-path="url(#clip0_82_529)"><path d="M8.01405 0.799988C3.59515 0.799988 0 4.39513 0 8.81404C0 13.2329 3.59515 16.8281 8.01405 16.8281C12.433 16.8281 16.0281 13.2329 16.0281 8.81404C16.0281 4.39513 12.433 0.799988 8.01405 0.799988ZM8.01405 12.7668C5.83333 12.7668 4.0613 10.9948 4.0613 8.81404C4.0613 6.63332 5.83333 4.86129 8.01405 4.86129C10.1948 4.86129 11.9668 6.63332 11.9668 8.81404C11.9668 10.9948 10.1948 12.7668 8.01405 12.7668ZM20 16.8281C20 18.1723 18.908 19.2642 17.5639 19.2642C16.2197 19.2642 15.1277 18.1723 15.1277 16.8281C15.1277 15.4839 16.2197 14.3919 17.5639 14.3919C18.908 14.3919 20 15.4839 20 16.8281Z" fill="url(#paint0_linear_82_529)"/></g><defs><linearGradient id="paint0_linear_82_529" x1="14.9197" y1="3.54939" x2="6.90892" y2="17.4268" gradientUnits="userSpaceOnUse"><stop stop-color="#05DCD7"/><stop offset="0.5" stop-color="#05A0F5"/><stop offset="0.99" stop-color="#EB64FA"/></linearGradient><clipPath id="clip0_82_529"><rect width="22" height="22" fill="white"/></clipPath></defs></svg>